/* XPM */
static char *e41b364cfac04cf0aea69094883891cc2qiotUa3OENiMHUb[] = {
/* columns rows colors chars-per-pixel */
"40 40 201 2 ",
"   c black",
".  c #010101",
"X  c #090909",
"o  c #0E0E0E",
"O  c gray6",
"+  c gray8",
"@  c gray9",
"#  c gray11",
"$  c #1E1E1E",
"%  c #202020",
"&  c #222222",
"*  c #252525",
"=  c #272727",
"-  c gray19",
";  c #353535",
":  c gray21",
">  c #373737",
",  c gray22",
"<  c #393939",
"1  c gray24",
"2  c #414141",
"3  c gray26",
"4  c #434343",
"5  c #444444",
"6  c #494949",
"7  c #565656",
"8  c #5A5A5A",
"9  c #5B5B5B",
"0  c #5F5F5F",
"q  c #646464",
"w  c gray40",
"e  c #676767",
"r  c #686868",
"t  c DimGray",
"y  c #6A6A6A",
"u  c gray42",
"i  c #6C6C6C",
"p  c gray43",
"a  c #71706E",
"s  c #667475",
"d  c gray44",
"f  c #717171",
"g  c #727272",
"h  c #747474",
"j  c gray46",
"k  c #767676",
"l  c #777777",
"z  c gray47",
"x  c #797979",
"c  c #7B7B7B",
"v  c #7C7C7C",
"b  c gray49",
"n  c #FE0000",
"m  c #FE0002",
"M  c #FC0D10",
"N  c #FE1212",
"B  c #FF2D2E",
"V  c #F23B35",
"C  c #FF3D3B",
"Z  c #FE3A3C",
"A  c #FF3B3C",
"S  c #976063",
"D  c #FF4747",
"F  c #F34A47",
"G  c #FF5454",
"H  c #FD817F",
"J  c #7D8788",
"K  c #808080",
"L  c #818181",
"P  c gray51",
"I  c #838383",
"U  c #848484",
"Y  c gray52",
"T  c #868686",
"R  c gray53",
"E  c #888888",
"W  c #898989",
"Q  c gray54",
"!  c #8B8B8B",
"~  c #8D8D8D",
"^  c #8E8E8E",
"/  c gray56",
"(  c #909090",
")  c #929292",
"_  c gray58",
"`  c #959595",
"'  c #9B9B9B",
"]  c gray61",
"[  c #9D9D9D",
"{  c gray62",
"}  c #9F9F9F",
"|  c #A0A0A0",
" . c gray63",
".. c gray64",
"X. c #A4A4A4",
"o. c #A5A5A5",
"O. c #A7A7A7",
"+. c #A4ADAC",
"@. c gray66",
"#. c #AAAAAA",
"$. c gray67",
"%. c gray68",
"&. c #AEAEAE",
"*. c #B0A2A2",
"=. c #ADB2B5",
"-. c #B1B1B1",
";. c gray70",
":. c #B7B1B3",
">. c #B4B4B4",
",. c gray71",
"<. c #B6B6B6",
"1. c #B7B7B7",
"2. c #B9B9B9",
"3. c gray73",
"4. c #BBBBBB",
"5. c #BCBCBC",
"6. c gray74",
"7. c gray",
"8. c gray75",
"9. c #C08080",
"0. c #FF9393",
"q. c #FA9696",
"w. c #C8B3B0",
"e. c #DCB6B5",
"r. c #FFAFAE",
"t. c #F8B0B1",
"y. c #FEB0B0",
"u. c #FCB5B3",
"i. c #FEBCBD",
"p. c #B4BFC1",
"a. c #C0C0C0",
"s. c #C1C1C1",
"d. c #C3C3C3",
"f. c #C5C5C5",
"g. c #C6C6C6",
"h. c #C4CACA",
"j. c #C8C8C8",
"k. c gray79",
"l. c #CACACA",
"z. c gray80",
"x. c #CDCDCD",
"c. c #CECECE",
"v. c gray81",
"b. c #D0D0D0",
"n. c gray82",
"m. c LightGray",
"M. c #D6D0D0",
"N. c gray83",
"B. c #D5D5D5",
"V. c #D8D8D8",
"C. c gray85",
"Z. c #DADADA",
"A. c gray86",
"S. c #DFDEDC",
"D. c gray87",
"F. c #DFDFDF",
"G. c #FFC8C7",
"H. c #FCD8D8",
"J. c gray88",
"K. c #E2E2E2",
"L. c gray89",
"P. c #E4E4E4",
"I. c #E6E6E6",
"U. c #E7E7E7",
"Y. c #EAEAEA",
"T. c #ECECEC",
"R. c #EEEEEE",
"E. c #EFEFEF",
"W. c #F1EBEB",
"Q. c #E9F4F0",
"!. c gray94",
"~. c #F1F1F1",
"^. c gray95",
"/. c #F4F4F4",
"(. c gray97",
"). c #FFF5F4",
"_. c #F8F8F8",
"`. c #F9F9F9",
"'. c #FBFBFB",
"]. c #FFF9F9",
"[. c #FEFFFA",
"{. c #FFFFFB",
"}. c #FBFFFF",
"|. c gray99",
" X c #FDFDFD",
".X c #FDFFFC",
"XX c #FEFEFC",
"oX c #FFFEFC",
"OX c #FFFEFD",
"+X c #FEFFFD",
"@X c #FFFFFD",
"#X c #FFFDFE",
"$X c #FFFCFF",
"%X c #FFFDFF",
"&X c #FDFFFE",
"*X c #FCFFFF",
"=X c #FEFEFE",
"-X c #FEFEFF",
";X c #FFFEFF",
":X c #FEFFFF",
">X c white",
/* pixels */
">X>X>X>X>X>X>X>X>X>X>X>X>X'.>X>XXX>X>X>X>XXX>X>X>X>X>X>X>X>X>X>X>X>X>X>X>X>X>X>X",
">X>X>X>X>X>X>X>X>X>X>X>X>X>X>X>X>X$X>X).].>X|.>X>X>X>X|.>X>X>X>X>X>X>X>X>X>X>X>X",
">X>X>X>X>X>X>X>X>X>X>X>X>X'.>X>X>X|.>XG r.>X>XXX>X>X>X>X>X>X>X>X>X>X>X>X>X>X>X>X",
">X>X>X>X>X>X>X>X>X>X>X>X>X>X>X>XQ.e.0.n A q.M.>X>X>X>X>X>X>X>X>X>X>X>X>X>X>X>X>X",
">X>X>X>X>X>X>X>X>X>X>X>X>XU.O.[ s S A D C F p J X.;.>X>X|.>X>X>X>X>X>X>X>X>X>X>X",
">X>X>X>X>X>X>X>X>X>X>XU.I h ^ j.T.>X>X>XXX>X>XS.4.c c ' >X>X>X>X>X>X>X>X>X>X>X>X",
">X>X>X>X>X>X>X>X>X>X[ w ) '.>X>X>XXX>X>X|.>X>X>X>X>XB.b p x.>X>X>X>X>X>X>X>X>X>X",
">X>X>X>X>X>X>X>X>Xc h Y.>X>X>X>XXXXX>XXX>X>X>XXX>X>X>X>Xs.w @.>X>X>X>X>X>X>X>X>X",
">X>X>X>X>X>X>X>Xg ^ >X>X>X>X>X>X>X>X>X>X>X>X>X>X>X>X>X>X>X(.y @.>X>X>X>X>X>X>X>X",
">X>X>X>X>X>X>XR [ >X>X>X>X>X>X>X>X|.>X>X>X>X|.>X>X>X>X>X>X>X>Xp <.>X>X>X>X>X>X>X",
">X>X>X>X>X>X| Q >X>X>X>X>X>X>X>X>X>X>X>X>X>X>X>X>X>X>X>X>X>X>X!.w b.>X>X>X>X>X>X",
">X>X>X>X>Xx.h >X>X>X>X>X>X>X>X>X>X>X>X>X>X>X>X>X>X>X>X>X>X>X>X>XB.c >X>X>X>X>X>X",
">X>X>X>X>XR f.>X>X>X>X>X>X>X>X>X>X>X>X>X>X>X>X>X>X>X>X|.>X>X>X>X>X^ &.>X>X>X>X>X",
">X>X>X>Xx.R >X>X>X>X>X>X>X>X>X>X>X>X>X>X>X>X>X>X|.>X>X>X>X|.>X>X>XU.I (.>X>X>X>X",
">X>X>X>X| 6.>X>X>X'.>X>X>X>X>X>X>X>X>X>X>X>X>X>X>X>X>X>X>X>X>X>X>X>X^ 6.>X>X>X>X",
">X>X>XU.g (.>X>X>X>X>X>XR.6.D.>X>X>Xx.6.'.>X>X>X>X>X>X>X>X>X>X>X>X>Xj.| >X>X>X>X",
">X>X>X;.b >X>X>X>X>X>X>X4.  p >X>X>X&   ^.>X>X>X>X>X>X>X>X>X>X>X>X>XY.b >X>X>X>X",
">X>X>X<.4.>X>X>X>X>X>X>X6.  c >X>X>X-   R.>X>X>X>X>X>X>X>X>X>X>X>X>X>XR B.>X>X>X",
">X>X>X;.b.>X>X>X>X>X>X>Xs.  Q >X>X>X<   >Xb.2 2 8 w w >X>X>X>X>X>X>X>X@.x.>X>X>X",
">X'.>XO.x.>X>X>X>X>X>X>Xs.  + < > > X X >Xf.o &     + >X>X>X>X>X>X>X>X4.x.>X>X>X",
">X>X>X| b.>X>X>X>X>X>X>Xs.            o ^.>X>X>X*   U.>X>X>X>X>X>X>X>X4.j.>X>X>X",
">X>X>X&.b.>X>X>X>X>X>X>Xs.  b >X>X>X>   ^.>X>X6   4.>X>X>X>X>X>X>X>X'.;.x.>X>X>X",
">X>X>X<.j.>X>X>X>X>X>X>X6.  b >X>X>X>   ^.>XI   [ >X>X>X>X'.>X>X>X>X>X' x.>X>X>X",
">X>X>X@.' >X>X>X>X>X>X>X<.  w >X>X>X+   >Xs.    < $ * R.>X>X>X>X>X>X(.c R.>X>X>X",
">X>X>Xx.y >X>X>X>X>X>X>Xx.5 ' >X>X>Xy 2 >X4.1 1 $ $ * R.>X>X>X>X>X>XZ.` >X>X>X>X",
">X>X>X>XQ D.>X>X>X>X>X>X>X>X>X>X>X>X>X>X>X>X>X>X>X>X>X>X>X>X>X>X>X>X[ @.>X>X>X>X",
">X>X>X>X<.` >X>X>X>X>X>X>X>X>X>X>X>X>X>X>X>X>X>X>X>X>X>X>X>X>X>X>X>XI Z.>X>X>X>X",
">X>X>X>XR.h Y.>X>X>X>X>X>X>X>X>X>X>X>X>X>X>X>X>X>X>X>X>X>X>X>X>X>X;.^ >X>X>X>X>X",
">X>X>X>X>XO.R >X>X>X>X>X>X>X>X>X>X'.>X>X>X>X>X>X>X>X>X>X>X>X>X>X'.p D.>X>X>X>X>X",
">X>X>X>X>X>Xh f.>X>X>X>X>X>X>X>X>X>X>X>X>X>X>X>X>X>X>X>X>X>X>X>XI ' >X>X>X>X>X>X",
">X>X>X>X>X>XK.0 D.>X>X>X>X>X>X>X>X>X>X>X>X>X>X>X'.>X>X>X>X>X>X[ g >X>X>X>X>X>X>X",
">X>X>X>X>X>X>Xj.7 B.>X>X>X>X>X>X'.>X>X>X>X>X>X>X>X>X>X>X>X>XO.y '.>X>X>X>X>X>X>X",
">X>X>X>X>X>X>X>Xj.8 4.>X>X>X>X>X>XXX>X>X>X>XXX>X>X>X>X>X>X! y (.>X>X>X>X>X>X>X>X",
">X>X>X>X>X>X>X>X>XK.p I R.>X>X>X>X>X|.>X|.>X>X>X>XXX>X6.y I >X>X>X>X>X>X>X>X>X>X",
">X>X>X>X>X>X>X>X>X>X>X) y Q b.>X>X>X|.>X>X>X>X>X(.6.g p ;.>X>X>X>X>X>X>X>X>X>X>X",
">X>X>X>X>X>X>X>X>X>X>X>XU.[ c Q =.w.y.G.i.t.:.+.h Q &.>X>X>X>X>X>X>X>X>X>X>X>X>X",
">X>X>X>X>X>X>X>X>X>X>X>X>X>X>XB.4.9.B m M V *.h.U.>X>X>X>X>X>X>X>X>X>X>X>X>X>X>X",
">X>X>X>X>X>X>X>X>X>X>X>X>X>X>X>XXX>X|.N H XX>X$X>X>X>X>X>X>X>X>X>X>X>X>X>X>X>X>X",
">X>X>X>X>X>X>X>X>X>X>X>X>X>X>X>X>X>X>Xt.H.>X>X>X>X>X>X>X>X>X>X|.>X>X>X>X>X>X>X>X",
">X>X>X>X>X>X>X>X>X>X>X>X>X>X>X>XXX>X>X$X>X>XXX>X>X>X>X>X>X>X>X>X>X>X>X>X>X>X>X>X"
};
